<?xml version="1.0" encoding="UTF-8" standalone="no"?>
<!-- Created with Inkscape (http://www.inkscape.org/) -->

<svg
   width="800"
   height="220"
   viewBox="0 0 211.66666 58.208333"
   version="1.1"
   id="svg1706"
   inkscape:version="1.2.2 (b0a84865, 2022-12-01)"
   sodipodi:docname="logo.svg"
   xmlns:inkscape="http://www.inkscape.org/namespaces/inkscape"
   xmlns:sodipodi="http://sodipodi.sourceforge.net/DTD/sodipodi-0.dtd"
   xmlns="http://www.w3.org/2000/svg"
   xmlns:svg="http://www.w3.org/2000/svg">
  <sodipodi:namedview
     id="namedview1708"
     pagecolor="#ffffff"
     bordercolor="#666666"
     borderopacity="1.0"
     inkscape:showpageshadow="2"
     inkscape:pageopacity="0.0"
     inkscape:pagecheckerboard="0"
     inkscape:deskcolor="#d1d1d1"
     inkscape:document-units="mm"
     showgrid="false"
     inkscape:zoom="0.914906"
     inkscape:cx="372.16938"
     inkscape:cy="24.046186"
     inkscape:window-width="2400"
     inkscape:window-height="988"
     inkscape:window-x="767"
     inkscape:window-y="174"
     inkscape:window-maximized="0"
     inkscape:current-layer="layer1" />
  <defs
     id="defs1703" />
  <g
     inkscape:label="Laag 1"
     inkscape:groupmode="layer"
     id="layer1">
    <g
       aria-label="LUMI-BE"
       id="text4785"
       style="font-size:50.8px;line-height:1.25;-inkscape-font-specification:'sans-serif, Normal';fill:#f2f2f2;stroke-width:0.264583">
      <path
         d="M 23.366015,48.011253 H -7.4505806e-8 V 11.077074 H 4.911328 v 32.568554 h 18.454687 z"
         id="path6569" />
      <path
         d="m 56.083398,33.17805 q 0,4.01836 -0.892969,7.019727 -0.868164,2.976562 -2.877343,4.960937 -1.909961,1.885157 -4.464844,2.753321 -2.554883,0.868164 -5.953125,0.868164 -3.472656,0 -6.052344,-0.917774 -2.579687,-0.917773 -4.34082,-2.703711 -2.00918,-2.033984 -2.902148,-4.911328 -0.868164,-2.877343 -0.868164,-7.069336 V 11.077074 h 4.911328 v 22.349023 q 0,3.001367 0.396875,4.737696 0.421679,1.736328 1.389062,3.150195 1.091406,1.612304 2.951758,2.430859 1.885156,0.818555 4.514453,0.818555 2.654101,0 4.514453,-0.79375 1.860352,-0.818555 2.976562,-2.455664 0.967383,-1.413867 1.364258,-3.224609 0.42168,-1.835547 0.42168,-4.539258 V 11.077074 h 4.911328 z"
         id="path6571" />
      <path
         d="M 98.350579,48.011253 H 93.439251 V 16.18684 L 83.170111,37.841332 H 80.243158 L 70.048431,16.18684 V 48.011253 H 65.459564 V 11.077074 h 6.697266 l 9.84746,20.563086 9.525,-20.563086 h 6.821289 z"
         id="path6573" />
      <path
         d="m 121.29492,48.011253 h -14.58515 v -3.770312 h 4.83691 V 14.847387 h -4.83691 v -3.770313 h 14.58515 v 3.770313 h -4.83691 v 29.393554 h 4.83691 z"
         id="path6575" />
      <path
         d="m 143.22226,34.095824 h -15.47812 v -4.489648 h 15.47812 z"
         id="path6577" />
      <path
         d="m 179.83398,36.650707 q 0,2.75332 -1.0418,4.861718 -1.04179,2.108399 -2.80293,3.472657 -2.08359,1.637109 -4.58886,2.33164 -2.48047,0.694531 -6.3252,0.694531 H 151.97832 V 11.077074 h 10.93886 q 4.04317,0 6.05235,0.297656 2.00918,0.297657 3.84472,1.240235 2.03399,1.066601 2.95176,2.75332 0.91778,1.661914 0.91778,3.993555 0,2.629297 -1.33946,4.489648 -1.33945,1.835547 -3.57187,2.951758 v 0.198437 q 3.74551,0.768946 5.90351,3.299024 2.15801,2.505273 2.15801,6.35 z m -8.25996,-16.643945 q 0,-1.339454 -0.44648,-2.257227 -0.44649,-0.917773 -1.43868,-1.488281 -1.16582,-0.669727 -2.82773,-0.818555 -1.66191,-0.173633 -4.11758,-0.173633 h -5.8539 v 10.666016 h 6.35 q 2.30683,0 3.67109,-0.223242 1.36426,-0.248047 2.53008,-0.992188 1.16582,-0.74414 1.63711,-1.909961 0.49609,-1.190625 0.49609,-2.802929 z m 3.1502,16.842382 q 0,-2.232422 -0.66973,-3.54707 -0.66973,-1.314649 -2.43086,-2.232422 -1.19063,-0.620117 -2.90215,-0.79375 -1.68672,-0.198437 -4.11758,-0.198437 h -7.71425 v 13.741796 h 6.49882 q 3.22461,0 5.2834,-0.322461 2.05879,-0.347265 3.37344,-1.240234 1.38906,-0.967383 2.03398,-2.207617 0.64493,-1.240235 0.64493,-3.199805 z"
         id="path6579" />
      <path
         d="m 211.13749,48.011253 h -24.3334 V 11.077074 h 24.3334 v 4.365625 h -19.42207 v 10.120313 h 19.42207 v 4.365624 h -19.42207 v 13.716992 h 19.42207 z"
         id="path6581" />
    </g>
    <rect
       style="fill:#f2f2f2;stroke:none;stroke-width:0.988271;fill-opacity:1"
       id="rect4936"
       width="211.66667"
       height="3.175"
       x="0"
       y="0" />
    <rect
       style="fill:#f2f2f2;stroke:none;stroke-width:0.988271;fill-opacity:1"
       id="rect4936-7"
       width="211.66667"
       height="3.175"
       x="-8.3049135e-06"
       y="55.033333" />
  </g>
</svg>
